<?xml version="1.0" standalone="no"?>
<!DOCTYPE svg PUBLIC "-//W3C//DTD SVG 20010904//EN"
 "http://www.w3.org/TR/2001/REC-SVG-20010904/DTD/svg10.dtd">
<svg version="1.0" xmlns="http://www.w3.org/2000/svg"
 width="800.000000pt" height="800.000000pt" viewBox="0 0 800.000000 800.000000"
 preserveAspectRatio="xMidYMid meet">
<metadata>
Created by potrace 1.11, written by Peter Selinger 2001-2013
</metadata>
<g transform="translate(0.000000,800.000000) scale(0.100000,-0.100000)"
fill="#000000" stroke="none">
<path d="M3983 7167 l-843 -492 0 -397 c0 -219 -2 -398 -5 -398 -4 0 -670 566
-944 802 -18 16 -39 27 -47 24 -23 -9 -1488 -868 -1502 -881 -11 -10 15 -38
135 -147 178 -162 654 -582 1366 -1207 l529 -464 -24 -22 c-13 -12 -230 -202
-483 -421 -572 -495 -1382 -1204 -1455 -1272 -33 -32 -50 -55 -45 -61 20 -18
1537 -911 1549 -911 6 0 214 171 461 380 248 209 453 380 458 380 4 0 7 -394
7 -875 0 -494 4 -875 9 -875 5 0 183 104 397 231 324 193 859 508 1219 719
l80 47 3 376 c1 207 6 377 10 377 4 0 214 -180 467 -401 272 -237 466 -398
475 -396 8 2 260 150 560 328 300 179 641 381 757 449 151 88 212 130 210 141
-3 23 -263 256 -1519 1363 -274 241 -498 441 -497 444 0 4 190 174 421 377
549 483 1228 1088 1445 1287 95 88 177 156 183 153 5 -3 10 1 10 9 0 9 -6 13
-14 10 -7 -3 -141 70 -297 162 -156 92 -493 288 -749 436 -392 228 -468 268
-483 259 -10 -7 -136 -112 -280 -234 -590 -501 -680 -577 -688 -577 -5 0 -9
398 -9 885 0 702 -3 885 -12 885 -7 -1 -392 -222 -855 -493z m507 -156 l0
-209 -317 -195 c-175 -108 -326 -202 -336 -209 -16 -12 -17 -32 -15 -231 l3
-218 253 160 252 160 -2 -166 -3 -166 -252 -171 -253 -171 0 -307 0 -307 -156
-138 c-85 -76 -159 -138 -164 -138 -5 0 -34 19 -65 43 l-55 43 0 893 0 893
552 322 c304 176 554 321 555 321 2 0 3 -94 3 -209z"/>
</g>
</svg>
